# xmcd CD database file
#
# Track frame offsets:
#	150
#	16272
#	34735
#	50660
#	65717
#	83552
#	103982
#	122515
#	137780
#	159717
#	177352
#
# Disc length: 2580 seconds
#
# Revision: 1
# Processed by: cddbd v1.4PL0 Copyright (c) Steve Scherf et al.
# Submitted via: CDex 1.40Release
#
DISCID=950a120b
DTITLE=S ou S - Marcas Na Estrada
DYEAR=1900
DGENRE=Blues
TTITLE0=Na Contramão
TTITLE1=Marcas Na Estrada
TTITLE2=Figuração
TTITLE3=Eu e Você
TTITLE4=Ponto de Fuga
TTITLE5=Down
TTITLE6=Muito Bem
TTITLE7=Qualquer Lugar
TTITLE8=Tempo Perdido
TTITLE9=Vício Sem Cura
TTITLE10=Tensa Calmaria
EXTD=ID3G: 0
EXTT0=
EXTT1=
EXTT2=
EXTT3=
EXTT4=
EXTT5=
EXTT6=
EXTT7=
EXTT8=
EXTT9=
EXTT10=
PLAYORDER=
